<svg width="28" height="32" viewBox="0 0 28 32" fill="none" xmlns="http://www.w3.org/2000/svg">
<path d="M26.8544 20.4948L15.2421 10.6601C14.1701 9.7559 12.7381 9.5885 11.4982 10.2269C10.2646 10.8619 9.53672 12.1321 9.60391 13.5434L10.3318 28.928C10.3958 30.2982 11.2646 31.4453 12.5462 31.8507C12.8614 31.9508 13.1813 32 13.4965 32C14.4629 32 15.3845 31.5422 15.9957 30.7134L18.5091 27.3017C19.0163 26.6125 19.8243 26.2006 20.6722 26.2006H24.8433C26.1904 26.2006 27.3536 25.3621 27.8095 24.0657C28.2639 22.7709 27.8896 21.3711 26.8544 20.4948ZM25.5537 23.232C25.5009 23.3846 25.3233 23.7391 24.8465 23.7391H20.6754C19.0819 23.7391 17.5572 24.5169 16.5972 25.8183L14.0837 29.23C13.7989 29.6189 13.4133 29.5499 13.2565 29.5007C13.1061 29.4531 12.7557 29.2907 12.7317 28.8098L12.0038 13.4252C11.9734 12.7869 12.4342 12.4997 12.575 12.4275C12.719 12.3536 13.2262 12.1453 13.7158 12.5588L25.3281 22.3934C25.6897 22.7003 25.6049 23.081 25.5537 23.232ZM9.60069 4.51282V1.23077C9.60069 0.551385 10.1383 0 10.8006 0C11.463 0 12.0006 0.551385 12.0006 1.23077V4.51282C12.0006 5.19221 11.463 5.74359 10.8006 5.74359C10.1383 5.74359 9.60069 5.19221 9.60069 4.51282ZM6.64886 7.83423C6.42806 8.23793 6.02007 8.46605 5.59929 8.46605C5.40249 8.46605 5.20088 8.41517 5.01689 8.31015L1.81702 6.47877C1.23784 6.14728 1.03138 5.39735 1.35297 4.80494C1.67616 4.21253 2.40582 3.99591 2.9866 4.33068L6.18647 6.16206C6.76565 6.49026 6.97044 7.24018 6.64886 7.83423ZM5.47449 12.1682C5.77208 12.777 5.53049 13.5155 4.93691 13.8191L1.73704 15.4601C1.56584 15.5487 1.38178 15.5897 1.20259 15.5897C0.762604 15.5897 0.338625 15.3403 0.127433 14.9087C-0.170155 14.2999 0.0714333 13.5615 0.66501 13.2579L3.86488 11.6168C4.46006 11.3132 5.1769 11.561 5.47449 12.1682ZM16.1268 6.70358C15.8292 6.09476 16.0708 5.35632 16.6644 5.05273L19.8643 3.41171C20.4578 3.10648 21.1763 3.3559 21.4739 3.96144C21.7714 4.57026 21.5299 5.30874 20.9363 5.61233L17.7364 7.25336C17.5652 7.34197 17.3811 7.38296 17.202 7.38296C16.762 7.3846 16.338 7.13517 16.1268 6.70358Z" fill="white"/>
</svg>
