<svg width="29" height="29" viewBox="0 0 29 29" fill="none" xmlns="http://www.w3.org/2000/svg">
<path d="M14.9178 1.94649C8.00603 1.70512 2.18746 7.13103 1.94609 14.0428C1.70473 20.9546 7.13063 26.7732 14.0424 27.0145C20.9542 27.2559 26.7728 21.83 27.0141 14.9182C27.2555 8.00642 21.8296 2.18785 14.9178 1.94649ZM14.1035 25.2656C8.15595 25.0579 3.48733 20.0514 3.69503 14.1039C3.90272 8.15635 8.9092 3.48773 14.8567 3.69542C20.8043 3.90311 25.4729 8.9096 25.2652 14.8571C25.0575 20.8047 20.051 25.4733 14.1035 25.2656ZM15.6512 13.9051L13.7926 13.3743C13.506 13.292 13.2657 13.1212 13.0885 12.8781C12.9214 12.6504 12.8345 12.3626 12.8448 12.07C12.87 11.3483 13.4769 10.7823 14.1986 10.8075L15.0148 10.836C15.6817 10.8593 16.2227 11.3802 16.2753 12.0474C16.3121 12.5297 16.7279 12.8921 17.2149 12.853C17.6972 12.8162 18.0574 12.3955 18.0205 11.9133C17.9121 10.5063 16.8655 9.38763 15.5152 9.14319L15.5313 8.68033C15.5482 8.19763 15.1701 7.79219 14.6874 7.77533C14.2047 7.75847 13.7993 8.13655 13.7824 8.61926L13.766 9.09037C12.306 9.27753 11.1488 10.4909 11.0959 12.0078C11.072 12.6922 11.2783 13.3695 11.674 13.9063C12.0704 14.4559 12.6491 14.8637 13.3079 15.0548L15.1665 15.5855C15.7454 15.754 16.1353 16.2906 16.1143 16.8899C16.1022 17.2373 15.9544 17.5602 15.6973 17.7999C15.4403 18.0395 15.1079 18.1645 14.7605 18.1523L13.9443 18.1238C13.2774 18.1005 12.7364 17.5797 12.6838 16.9124C12.647 16.4302 12.2208 16.0651 11.7442 16.1068C11.2619 16.1437 10.9017 16.5642 10.9386 17.0464C11.0453 18.4358 12.0665 19.5468 13.3916 19.809L13.3752 20.2788C13.3584 20.7615 13.7365 21.167 14.2192 21.1838C14.7019 21.2007 15.1073 20.8226 15.1242 20.3399L15.1404 19.8759C15.7908 19.8041 16.4013 19.5381 16.89 19.0824C17.4885 18.5243 17.8347 17.7682 17.8632 16.9532C17.9122 15.5506 17.0045 14.2991 15.6512 13.9051Z" fill="white"/>
</svg>
