<svg width="29" height="29" viewBox="0 0 29 29" fill="none" xmlns="http://www.w3.org/2000/svg">
<path d="M13.6094 20.5601C14.0911 20.9845 14.6981 21.184 15.2974 21.163C15.8967 21.1421 16.4871 20.9008 16.9393 20.4438L24.013 13.2766C24.6005 12.6817 24.7648 11.8016 24.4287 11.0347C24.0914 10.2678 23.3359 9.79223 22.4987 9.82146L20.3498 9.8965L20.1768 4.94233C20.1375 3.81718 19.1903 2.93387 18.0652 2.97316L11.0694 3.21746C9.94427 3.25675 9.06096 4.20399 9.10025 5.32913L9.27329 10.2844L7.32254 10.3526C6.48538 10.3818 5.76378 10.9101 5.48192 11.6974C5.2001 12.4859 5.42421 13.3513 6.05287 13.9037L13.6094 20.5601ZM7.13101 12.2866C7.15968 12.205 7.22734 12.107 7.38475 12.1015L10.21 12.0028C10.442 11.9947 10.6615 11.8948 10.819 11.7247C10.9765 11.5546 11.062 11.3298 11.0539 11.0978L10.8503 5.26802C10.8447 5.10712 10.9707 4.97197 11.1316 4.96635L18.1274 4.72205C18.2883 4.71644 18.4234 4.84246 18.429 5.00336L18.6326 10.8331C18.6407 11.0652 18.7406 11.2847 18.9107 11.4422C19.0808 11.6008 19.3056 11.6852 19.5376 11.6771L22.561 11.5715C22.7184 11.566 22.7915 11.6592 22.827 11.7385C22.8613 11.8178 22.8807 11.9351 22.7702 12.0475L15.6962 19.2147C15.4425 19.4699 15.038 19.484 14.7671 19.2472L7.2106 12.5908C7.09022 12.4865 7.10117 12.3682 7.13101 12.2866ZM24.4659 24.638C24.4828 25.1207 24.1047 25.5261 23.622 25.543L7.29862 26.113C6.81591 26.1299 6.41047 25.7518 6.39361 25.2691C6.37676 24.7864 6.75484 24.3809 7.23754 24.3641L23.5609 23.794C24.0436 23.7772 24.4491 24.1553 24.4659 24.638Z" fill="white"/>
</svg>
