<svg width="722" height="228" viewBox="0 0 722 228" fill="none" xmlns="http://www.w3.org/2000/svg">
<rect x="671.75" y="12.0052" width="52.0225" height="52.0225" rx="26" transform="rotate(15 671.75 12.0052)" fill="white" fill-opacity="0.11"/>
<path d="M686.895 55.982C686.805 55.9578 686.719 55.9189 686.64 55.8663C685.009 54.7888 676.999 48.9463 679.487 39.6633L681.265 33.0252C681.373 32.6228 681.751 32.3504 682.167 32.3786C687.964 32.7525 690.173 32.3079 692.972 31.7443C693.243 31.6899 693.562 31.7588 693.767 31.9406C695.872 33.8206 697.536 35.3053 702.793 37.9053C703.167 38.0902 703.359 38.5137 703.251 38.9162L701.472 45.5554C698.984 54.8384 689.127 55.8934 687.175 56.0109C687.08 56.0156 686.986 56.0061 686.895 55.982ZM682.771 34.1684L681.178 40.1164C679.104 47.8561 685.495 52.9461 687.362 54.2402C689.626 54.0529 697.706 52.8394 699.78 45.1009L701.374 39.1528C696.667 36.7727 694.833 35.2335 692.927 33.5375C690.276 34.0679 687.992 34.4603 682.771 34.1684ZM690.135 43.9207C688.643 43.521 687.755 41.9815 688.155 40.49C688.554 38.9984 690.093 38.1094 691.585 38.5091C693.076 38.9087 693.965 40.4482 693.565 41.9397C693.166 43.4313 691.626 44.3203 690.135 43.9207ZM691.131 40.2002C690.572 40.0503 689.996 40.3839 689.846 40.9431C689.696 41.5023 690.029 42.0797 690.588 42.2296C691.147 42.3794 691.724 42.0458 691.874 41.4866C692.024 40.9274 691.691 40.35 691.131 40.2002ZM692.09 50.1238C691.623 49.9987 691.346 49.5184 691.471 49.0517L691.563 48.7101C691.78 47.8984 691.44 46.9286 690.187 46.593L688.74 46.2054C687.488 45.8698 686.708 46.5393 686.49 47.351L686.399 47.6926C686.274 48.1593 685.794 48.4366 685.327 48.3116C684.86 48.1865 684.583 47.7062 684.708 47.2395L684.799 46.8979C685.242 45.2474 686.892 43.8977 689.193 44.5143L690.64 44.9019C692.941 45.5185 693.696 47.5116 693.254 49.1632L693.162 49.5048C693.037 49.9716 692.557 50.2489 692.09 50.1238Z" fill="white" fill-opacity="0.55"/>
<rect x="526.687" y="164.071" width="52.0225" height="52.0225" rx="26" transform="rotate(15 526.687 164.071)" fill="white" fill-opacity="0.11"/>
<path d="M557.029 198.408C556.78 197.502 556.087 196.815 555.178 196.57L554.333 196.344L554.422 196.014C555.152 193.288 554.053 191.384 551.327 190.654L544.913 188.935L543.444 186.391C543.327 186.189 543.137 186.043 542.913 185.983L539.531 185.076C536.804 184.346 534.9 185.445 534.17 188.171L530.999 200.004C530.998 200.009 530.999 200.013 530.998 200.017C530.88 200.457 530.876 200.927 531.003 201.388C531.253 202.295 531.946 202.982 532.856 203.226L547.265 207.087C548.799 207.497 550.436 207.047 551.54 205.912L556.384 200.925C557.036 200.253 557.279 199.313 557.029 198.408ZM539.076 186.767L542.108 187.579L543.577 190.124C543.693 190.325 543.884 190.472 544.108 190.532L550.872 192.345C552.65 192.821 553.206 193.783 552.729 195.561L552.641 195.89L540.773 192.703C540.771 192.702 540.77 192.702 540.769 192.702C539.235 192.291 537.596 192.741 536.493 193.878L533.673 196.784L535.86 188.624C536.336 186.846 537.298 186.291 539.076 186.767ZM555.128 199.705L550.284 204.692C549.623 205.373 548.639 205.643 547.718 205.397L533.309 201.536C532.87 201.418 532.731 201.069 532.691 200.924C532.652 200.781 532.593 200.413 532.904 200.093L537.75 195.1C538.411 194.418 539.394 194.148 540.317 194.395C540.318 194.396 540.318 194.396 540.319 194.396L554.724 198.264C555.162 198.382 555.302 198.732 555.34 198.877C555.381 199.017 555.44 199.385 555.128 199.705Z" fill="white" fill-opacity="0.55"/>
<rect x="121.582" y="161.104" width="52.0225" height="52.0225" rx="26" transform="rotate(-10.5335 121.582 161.104)" fill="white" fill-opacity="0.11"/>
<path d="M155.847 168.428L147.977 169.891C145.555 170.342 144.425 171.988 144.875 174.409L145.02 175.19L144.241 175.335C141.783 175.792 140.682 177.397 141.139 179.854L144.004 195.264C144.061 195.571 144.278 195.824 144.572 195.929C144.719 195.981 144.876 195.992 145.025 195.964C145.172 195.937 145.313 195.872 145.431 195.772L151.203 190.88L158.347 193.37C158.642 193.473 158.97 193.411 159.205 193.207C159.441 193.004 159.553 192.69 159.496 192.383L158.43 186.651L162.082 187.927C162.23 187.978 162.383 187.988 162.532 187.961C162.681 187.933 162.823 187.866 162.941 187.764C163.178 187.561 163.289 187.247 163.232 186.94L160.367 171.529C159.915 169.108 158.268 167.978 155.847 168.428ZM157.497 191.22L151.305 189.063C151.013 188.96 150.687 189.021 150.451 189.221L145.449 193.461L142.859 179.535C142.583 178.052 143.076 177.333 144.56 177.057L152.429 175.594C153.914 175.318 154.631 175.811 154.907 177.295L157.496 191.22L157.497 191.22ZM161.234 185.776L158.06 184.667L156.629 176.974C156.172 174.516 154.566 173.415 152.11 173.872L146.74 174.87L146.595 174.09C146.32 172.607 146.812 171.889 148.296 171.613L156.166 170.149C157.65 169.873 158.367 170.366 158.643 171.849L161.233 185.777L161.234 185.776ZM152.227 180.244C152.626 180.517 152.727 181.063 152.454 181.461L149.962 185.091C149.831 185.283 149.629 185.414 149.401 185.456C149.173 185.499 148.937 185.449 148.746 185.317L146.932 184.072C146.533 183.798 146.432 183.253 146.705 182.854C146.98 182.455 147.526 182.355 147.923 182.628L149.016 183.378L151.012 180.47C151.285 180.071 151.829 179.97 152.227 180.244Z" fill="white" fill-opacity="0.55"/>
<rect y="13.4643" width="52.0225" height="52.0225" rx="26" transform="rotate(-15 0 13.4643)" fill="white" fill-opacity="0.11"/>
<path d="M42.9853 32.8023L42.7035 32.8778L40.2113 23.5767C39.4808 20.8507 37.5768 19.7513 34.8507 20.4818L23.5767 23.5027C20.8506 24.2331 19.7513 26.1372 20.4817 28.8632L22.974 38.1643L22.6921 38.2398C22.2254 38.3649 21.9481 38.8452 22.0731 39.3119L22.3752 40.4393C22.9033 42.41 24.3356 43.237 26.3063 42.709L42.0899 38.4797C44.0606 37.9517 44.8876 36.5194 44.3595 34.5487L44.0575 33.4213C43.9324 32.9545 43.4521 32.6772 42.9853 32.8023ZM22.1728 28.4101C21.6965 26.6322 22.2519 25.6701 24.0298 25.1938L35.3038 22.1729C37.0817 21.6965 38.0438 22.2519 38.5202 24.0299L41.0124 33.3309L24.6651 37.7112L22.1728 28.4101ZM42.6684 35.0018C42.9473 36.0424 42.6774 36.5098 41.6368 36.7886L25.8532 41.0179C24.8126 41.2967 24.3451 41.0268 24.0663 39.9862L23.9908 39.7044L42.5929 34.7199L42.6684 35.0018ZM29.1515 28.389L27.9383 30.4903L30.0396 31.7035C30.4584 31.9453 30.6019 32.4809 30.3601 32.8997C30.2396 33.1084 30.0455 33.2498 29.829 33.3078C29.6125 33.3658 29.374 33.3416 29.165 33.2199L26.306 31.5693C25.8872 31.3275 25.7437 30.7919 25.9855 30.3731L27.6361 27.5141C27.8779 27.0953 28.4135 26.9518 28.8323 27.1936C29.2512 27.4354 29.3933 27.9702 29.1515 28.389ZM36.1998 27.6362C36.6187 27.878 36.7622 28.4135 36.5203 28.8324L34.8697 31.6914C34.7492 31.9001 34.5551 32.0415 34.3386 32.0995C34.1221 32.1575 33.8836 32.1332 33.6746 32.0116C33.2558 31.7698 33.1123 31.2342 33.3541 30.8154L34.5673 28.7141L32.466 27.5009C32.0471 27.2591 31.9036 26.7235 32.1454 26.3047C32.3873 25.8858 32.9228 25.7423 33.3417 25.9841L36.1998 27.6362Z" fill="white" fill-opacity="0.55"/>
</svg>
