<svg width="629" height="222" viewBox="0 0 629 222" fill="none" xmlns="http://www.w3.org/2000/svg">
<path d="M146.568 80.2089C141.073 83.3813 134.047 81.4986 130.874 76.0039V76.0039C126.638 68.6658 129.257 57.892 125.02 50.5539L120.115 42.0569C118.88 39.9189 116.463 38.7947 114.112 38.0394V38.0394C111.413 37.1717 108.392 36.6889 105.936 38.1068L98.4746 42.4146C91.1052 46.6692 88.3171 57.6243 81.2104 62.3046C81.0208 62.4294 80.8264 62.5495 80.6273 62.6645C75.1326 65.8368 68.1064 63.954 64.934 58.4595C61.7616 52.9648 63.6443 45.9385 69.1389 42.7662V42.7662C75.9068 38.859 85.5242 40.6786 92.292 36.7712L93.2005 36.2467C101.082 31.6965 104.757 20.0554 113.143 16.5194C113.625 16.3161 114.127 16.1433 114.647 16.004C120.775 14.3619 127.074 17.9993 128.717 24.1278V24.1278C130.591 31.1254 128.068 39.8778 131.69 46.1516L132.762 48.0081C136.555 54.5782 145.65 57.3579 150.11 63.495C150.346 63.8198 150.567 64.1601 150.773 64.5156C153.945 70.0103 152.062 77.0366 146.568 80.2089Z" fill="white"/>
<path d="M107.445 74.9177C107.445 81.2625 102.302 86.4061 95.9571 86.4061V86.4061C87.4817 86.4059 79.4586 78.7469 70.9833 78.7469H61.1807C58.7112 78.7469 56.5283 80.2793 54.6985 81.9377V81.9377C52.5971 83.8423 50.6682 86.2176 50.6682 89.0537V97.6656C50.6682 106.174 58.7611 114.065 59.2631 122.559C59.2766 122.786 59.2834 123.016 59.2834 123.247C59.2832 129.592 54.1396 134.734 47.7951 134.734C41.4506 134.734 36.3071 129.592 36.3069 123.247V123.247C36.3069 115.432 42.6907 108.013 42.6907 100.199V99.1514C42.6907 90.0508 34.446 81.0475 35.5766 72.0174C35.6416 71.4983 35.7429 70.9774 35.8821 70.4578C37.5242 64.3292 43.8239 60.6916 49.9524 62.3337V62.3337C56.9496 64.2087 63.2674 70.7693 70.5115 70.7693H72.659C80.2454 70.7693 87.201 64.2846 94.746 63.4935C95.144 63.4518 95.548 63.4304 95.9571 63.4304C102.302 63.4304 107.445 68.5732 107.445 74.9177Z" fill="white"/>
<path d="M161.973 117.763C156.478 114.591 154.596 107.565 157.768 102.07V102.07C162.006 94.7306 172.65 91.6127 176.887 84.2732L181.787 75.7867C183.022 73.6474 182.786 70.99 182.265 68.5755V68.5755C181.666 65.803 180.574 62.9447 178.117 61.5266L170.659 57.2208C163.289 52.9658 152.407 56.0304 144.799 52.2163C144.596 52.1144 144.394 52.0058 144.195 51.8906C138.7 48.7182 136.817 41.692 139.99 36.1973C143.162 30.7027 150.188 28.8199 155.683 31.9923V31.9923C162.45 35.8991 165.683 45.1358 172.45 49.0427L173.358 49.5671C181.241 54.1182 193.163 51.479 200.419 56.9753C200.836 57.2908 201.236 57.6386 201.616 58.0186C206.102 62.505 206.101 69.779 201.615 74.2654V74.2654C196.494 79.387 187.655 81.578 184.033 87.8506L182.959 89.711C179.166 96.2814 181.305 105.548 178.217 112.478C178.054 112.843 177.871 113.204 177.666 113.558C174.494 119.053 167.468 120.936 161.973 117.763Z" fill="white"/>
<path d="M135.875 149.781C135.875 143.436 141.018 138.293 147.362 138.292V138.292C155.838 138.292 163.861 145.952 172.336 145.952H182.138C184.608 145.952 186.791 144.419 188.621 142.761V142.761C190.723 140.856 192.652 138.481 192.652 135.644V127.033C192.652 118.524 184.559 110.634 184.057 102.14C184.044 101.912 184.037 101.683 184.037 101.451C184.037 95.1069 189.181 89.9641 195.525 89.9641C201.87 89.9642 207.013 95.107 207.013 101.451V101.451C207.013 109.266 200.63 116.685 200.63 124.5V125.547C200.63 134.648 208.874 143.651 207.744 152.681C207.679 153.2 207.577 153.721 207.438 154.241C205.796 160.369 199.496 164.007 193.368 162.365V162.365C186.371 160.49 180.053 153.929 172.809 153.929H170.661C163.074 153.929 156.118 160.414 148.573 161.205C148.175 161.247 147.771 161.268 147.362 161.268C141.018 161.268 135.875 156.125 135.875 149.781Z" fill="white"/>
<path d="M99.6049 141.563C105.099 138.391 112.125 140.273 115.298 145.767V145.767C119.534 153.105 116.915 163.879 121.152 171.217L126.057 179.714C127.292 181.852 129.71 182.976 132.06 183.732V183.732C134.76 184.6 137.781 185.083 140.237 183.665L147.698 179.357C155.067 175.103 157.855 164.148 164.962 159.468C165.152 159.343 165.346 159.223 165.545 159.107C171.04 155.935 178.066 157.818 181.239 163.313C184.411 168.807 182.528 175.833 177.033 179.005V179.005C170.265 182.913 160.647 181.093 153.878 185.001L152.97 185.525C145.089 190.075 141.415 201.716 133.03 205.253C132.548 205.456 132.046 205.629 131.526 205.768C125.398 207.41 119.097 203.773 117.455 197.645V197.645C115.58 190.647 118.104 181.894 114.482 175.62L113.41 173.763C109.617 167.193 100.522 164.413 96.0619 158.276C95.8259 157.951 95.6046 157.611 95.3994 157.255C92.2273 151.761 94.1103 144.735 99.6049 141.563Z" fill="white"/>
<path d="M83.262 102.76C88.7566 105.933 90.6393 112.959 87.467 118.454V118.454C83.2295 125.793 72.5854 128.911 68.3479 136.25L63.4475 144.738C62.2126 146.877 62.4484 149.534 62.9699 151.948V151.948C63.5688 154.721 64.6615 157.579 67.1177 158.997L74.5753 163.303C81.9449 167.557 92.8272 164.494 100.435 168.307C100.639 168.409 100.84 168.518 101.04 168.633C106.535 171.805 108.418 178.832 105.245 184.326C102.073 189.821 95.0467 191.704 89.5521 188.531V188.531C82.7852 184.624 79.5525 175.388 72.7856 171.481L71.8773 170.957C63.9945 166.405 52.0717 169.045 44.8161 163.548C44.3996 163.233 43.9996 162.885 43.6196 162.505C39.1333 158.019 39.1329 150.744 43.6192 146.258V146.258C48.7408 141.136 57.5793 138.945 61.2008 132.673L62.275 130.812C66.0684 124.242 63.9301 114.975 67.0181 108.045C67.1809 107.68 67.3643 107.319 67.5687 106.965C70.7411 101.471 77.7674 99.5879 83.262 102.76Z" fill="white"/>
<path d="M268.06 142.387L299.209 88.9877H308.109L339.259 142.387H331.471L324.796 130.149H282.522L275.847 142.387H268.06ZM285.86 124.587H321.459L303.659 93.4376L285.86 124.587ZM345.36 142.387V102.337H352.035V107.309C353.032 105.965 354.226 104.841 355.616 103.937C357.007 103.033 358.78 102.361 360.935 101.92C363.114 101.457 365.895 101.225 369.279 101.225C373.474 101.225 376.892 101.793 379.534 102.928C382.177 104.064 384.123 106.023 385.375 108.804C386.511 107.042 387.878 105.605 389.477 104.493C391.076 103.357 393.081 102.534 395.491 102.025C397.925 101.491 400.915 101.225 404.461 101.225C408.679 101.225 412.109 101.804 414.751 102.963C417.393 104.099 419.329 106.046 420.557 108.804C421.809 111.562 422.434 115.34 422.434 120.137V142.387H415.759V120.137C415.759 116.475 415.377 113.694 414.612 111.794C413.847 109.87 412.573 108.56 410.788 107.865C409.027 107.147 406.639 106.787 403.626 106.787C397.716 106.787 393.498 107.656 390.972 109.395C388.469 111.133 387.217 113.972 387.217 117.912V117.877C387.241 118.596 387.252 119.349 387.252 120.137V142.387H380.577V120.137C380.577 116.475 380.195 113.694 379.43 111.794C378.665 109.87 377.391 108.56 375.606 107.865C373.845 107.147 371.457 106.787 368.444 106.787C362.534 106.787 358.316 107.656 355.79 109.395C353.287 111.133 352.035 113.972 352.035 117.912V142.387H345.36ZM453.915 143.151C449.442 143.151 445.641 142.92 442.512 142.456C439.383 142.016 436.857 141.1 434.933 139.71C433.009 138.296 431.607 136.187 430.726 133.383C429.846 130.578 429.405 126.835 429.405 122.153C429.405 117.611 429.846 113.972 430.726 111.237C431.607 108.502 433.009 106.44 434.933 105.049C436.857 103.659 439.383 102.731 442.512 102.268C445.641 101.804 449.442 101.573 453.915 101.573C458.411 101.573 462.212 101.804 465.318 102.268C468.446 102.731 470.973 103.659 472.896 105.049C474.82 106.44 476.222 108.502 477.103 111.237C477.984 113.972 478.424 117.611 478.424 122.153C478.424 126.835 477.984 130.578 477.103 133.383C476.222 136.187 474.82 138.296 472.896 139.71C470.973 141.1 468.446 142.016 465.318 142.456C462.212 142.92 458.411 143.151 453.915 143.151ZM471.749 122.153C471.749 118.839 471.575 116.185 471.228 114.192C470.903 112.199 470.173 110.704 469.037 109.708C467.902 108.688 466.129 108.004 463.718 107.656C461.331 107.309 458.063 107.135 453.915 107.135C449.789 107.135 446.521 107.309 444.111 107.656C441.701 108.004 439.928 108.688 438.792 109.708C437.656 110.704 436.915 112.199 436.567 114.192C436.242 116.185 436.08 118.839 436.08 122.153C436.08 125.584 436.242 128.33 436.567 130.393C436.915 132.455 437.656 134.008 438.792 135.051C439.928 136.071 441.701 136.755 444.111 137.102C446.521 137.427 449.789 137.589 453.915 137.589C458.063 137.589 461.331 137.427 463.718 137.102C466.129 136.755 467.902 136.071 469.037 135.051C470.173 134.008 470.903 132.455 471.228 130.393C471.575 128.33 471.749 125.584 471.749 122.153ZM486.195 142.387V102.337H492.869V107.865C493.611 106.683 494.353 105.698 495.094 104.91C495.859 104.122 496.844 103.496 498.049 103.033C499.278 102.569 500.935 102.245 503.021 102.059C505.107 101.851 507.853 101.746 511.26 101.746V107.344C506.671 107.344 503.113 107.506 500.587 107.83C498.084 108.155 496.288 108.711 495.199 109.499C494.109 110.264 493.449 111.33 493.217 112.697C492.985 114.065 492.869 115.803 492.869 117.912V142.387H486.195ZM525.74 142.387V107.413H519.065V102.337H525.74V100.599C525.74 96.7982 526.355 93.878 527.583 91.8384C528.834 89.7989 530.77 88.3967 533.389 87.6319C536.031 86.8671 539.426 86.4846 543.575 86.4846H551.327V91.908H543.54C540.226 91.908 537.781 92.1166 536.205 92.5337C534.629 92.9509 533.597 93.7853 533.11 95.0368C532.647 96.2652 532.415 98.1193 532.415 100.599V102.337H551.327V107.413H532.415V142.387H525.74ZM577.697 143.151C572.83 143.151 568.913 142.989 565.947 142.665C563.003 142.34 560.767 141.738 559.237 140.857C557.731 139.976 556.711 138.725 556.178 137.102C555.668 135.48 555.413 133.371 555.413 130.775H561.81C561.81 132.235 561.914 133.417 562.122 134.321C562.331 135.202 562.922 135.886 563.895 136.372C564.869 136.836 566.445 137.16 568.624 137.346C570.825 137.508 573.908 137.589 577.871 137.589C582.066 137.589 585.322 137.508 587.64 137.346C589.981 137.16 591.661 136.836 592.681 136.372C593.701 135.886 594.315 135.19 594.523 134.286C594.755 133.383 594.871 132.189 594.871 130.706C594.871 128.898 594.709 127.542 594.384 126.638C594.06 125.734 593.295 125.132 592.09 124.83C590.885 124.506 588.961 124.332 586.319 124.309L570.397 124.135C566.294 124.089 563.165 123.741 561.01 123.092C558.855 122.443 557.383 121.307 556.595 119.685C555.807 118.04 555.413 115.71 555.413 112.697C555.413 109.893 555.842 107.726 556.699 106.196C557.58 104.667 558.947 103.577 560.801 102.928C562.656 102.28 565.066 101.897 568.033 101.781C570.999 101.642 574.58 101.573 578.775 101.573C583.711 101.573 587.628 101.723 590.525 102.025C593.446 102.326 595.624 102.894 597.061 103.728C598.521 104.562 599.472 105.779 599.912 107.378C600.375 108.954 600.607 111.017 600.607 113.567H594.21C594.21 112.06 594.106 110.878 593.898 110.02C593.689 109.14 593.121 108.502 592.194 108.108C591.29 107.691 589.807 107.425 587.744 107.309C585.705 107.193 582.831 107.135 579.123 107.135C574.904 107.135 571.625 107.181 569.284 107.274C566.943 107.367 565.251 107.587 564.208 107.935C563.165 108.282 562.528 108.838 562.296 109.603C562.065 110.345 561.949 111.376 561.949 112.697C561.949 114.042 562.018 115.108 562.157 115.896C562.319 116.661 562.725 117.24 563.374 117.634C564.023 118.028 565.078 118.295 566.538 118.434C568.021 118.549 570.084 118.619 572.726 118.642L586.458 118.781C590.583 118.828 593.712 119.175 595.844 119.824C598 120.45 599.46 121.62 600.225 123.335C601.013 125.027 601.407 127.484 601.407 130.706C601.407 133.603 600.978 135.886 600.121 137.554C599.286 139.223 597.942 140.463 596.088 141.274C594.234 142.062 591.789 142.572 588.752 142.804C585.739 143.036 582.054 143.151 577.697 143.151Z" fill="white"/>
</svg>
