<svg width="29" height="29" viewBox="0 0 29 29" fill="none" xmlns="http://www.w3.org/2000/svg">
<path d="M14.8777 3.11211C8.61065 2.89326 3.33382 7.81396 3.11493 14.0821C3.05793 15.7145 3.36329 17.3699 4.0005 18.8794C4.12469 19.1674 4.1225 19.5269 3.99574 19.8809L2.91355 22.7627C2.64296 23.491 2.80504 24.2987 3.33845 24.8695C3.71653 25.2749 4.22667 25.5029 4.75951 25.5215C4.97638 25.5291 5.19578 25.5017 5.4128 25.4381L8.34892 24.5647C8.72381 24.4599 9.0838 24.4806 9.36808 24.6306C10.8214 25.369 12.4515 25.7889 14.0826 25.8459C20.3508 26.0648 25.6276 21.1441 25.8465 14.8759C26.0654 8.60777 21.1458 3.331 14.8777 3.11211ZM14.1449 24.097C12.7655 24.0488 11.3887 23.6938 10.1694 23.0745C9.49411 22.7229 8.68061 22.6535 7.8624 22.8841L4.91562 23.7607C4.76817 23.8046 4.66574 23.7263 4.61848 23.6756C4.57122 23.6249 4.50027 23.5186 4.55433 23.3745L5.64062 20.4812C5.92145 19.6937 5.90913 18.8772 5.60982 18.1885C5.0739 16.9207 4.8157 15.5225 4.86391 14.142C5.04908 8.83924 9.51387 4.67473 14.8166 4.85991C20.1206 5.04512 24.284 9.50977 24.0988 14.8137C23.9135 20.1176 19.4488 24.2822 14.1449 24.097ZM17.5777 12.1427C17.7505 13.3768 17.1992 14.4549 16.0253 15.1774C15.362 15.585 15.2657 15.801 15.2619 15.8091C15.1179 16.1566 14.7697 16.3709 14.4105 16.3584C14.3149 16.3551 14.2197 16.3365 14.1265 16.2994C13.6831 16.124 13.4562 15.6386 13.6248 15.1916C13.8859 14.4991 14.5966 14.0009 15.1083 13.6873C15.867 13.2211 15.8927 12.7212 15.846 12.3857C15.773 11.8683 15.3489 11.4134 14.8367 11.3045C14.4474 11.2208 14.0511 11.3074 13.7391 11.551C13.4318 11.7913 13.2487 12.1514 13.2351 12.5397C13.2183 13.0224 12.8128 13.4005 12.3301 13.3836C11.8474 13.3668 11.4694 12.9613 11.4862 12.4786C11.5179 11.5715 11.9464 10.732 12.6617 10.1721C13.377 9.61338 14.2996 9.40162 15.2 9.59183C16.4249 9.85173 17.4027 10.9003 17.5777 12.1427ZM15.5263 18.6025C15.5039 19.2461 14.9644 19.7503 14.3197 19.7278C13.6761 19.7053 13.166 19.1645 13.1884 18.5209C13.2109 17.8773 13.7458 17.373 14.3894 17.3954L14.4011 17.3958C15.0447 17.4183 15.5488 17.9589 15.5263 18.6025Z" fill="white"/>
</svg>
