<svg width="29" height="29" viewBox="0 0 29 29" fill="none" xmlns="http://www.w3.org/2000/svg">
<path d="M15.7259 14.1447L12.0487 14.2731C10.8454 14.3151 10.124 15.0886 10.166 16.2919L10.2537 18.8034C10.2958 20.0066 11.0694 20.7279 12.2726 20.6859L15.9498 20.5575C17.1531 20.5155 17.8745 19.742 17.8325 18.5387L17.7448 16.0272C17.7027 14.824 16.9291 14.1027 15.7259 14.1447ZM16.0835 18.5998C16.0873 18.7082 16.0753 18.767 16.0793 18.7809C16.0551 18.7899 15.9972 18.8059 15.8888 18.8097L12.2116 18.9381C12.116 18.9415 12.0583 18.933 12.0384 18.9337C12.0349 18.9338 12.0328 18.9339 12.0316 18.9339C12.0225 18.9085 12.0065 18.8507 12.0027 18.7423L11.915 16.2308C11.9112 16.1224 11.9232 16.0636 11.9192 16.0497C11.9434 16.0407 12.0013 16.0247 12.1097 16.0209L15.7869 15.8925C15.8988 15.8886 15.9577 15.8994 15.9669 15.8967C15.976 15.9221 15.992 15.9799 15.9958 16.0883L16.0835 18.5998ZM23.5573 15.3305C23.5742 15.8132 23.1961 16.2186 22.7134 16.2355L20.3815 16.3169C19.8988 16.3338 19.4933 15.9557 19.4765 15.473C19.4596 14.9903 19.8377 14.5848 20.3204 14.568L22.6523 14.4865C23.135 14.4697 23.5405 14.8478 23.5573 15.3305ZM23.6795 18.8283C23.6963 19.311 23.3182 19.7165 22.8355 19.7333L20.5036 19.8148C20.0209 19.8316 19.6155 19.4535 19.5986 18.9708C19.5818 18.4881 19.9598 18.0827 20.4425 18.0658L22.7745 17.9844C23.2572 17.9675 23.6626 18.3456 23.6795 18.8283ZM23.3944 10.6666C23.4113 11.1493 23.0332 11.5548 22.5505 11.5716L10.891 11.9788C10.4083 11.9957 10.0028 11.6176 9.98595 11.1349C9.9691 10.6522 10.3472 10.2467 10.8299 10.2299L22.4894 9.82271C22.9721 9.80585 23.3776 10.1839 23.3944 10.6666ZM22.3266 5.15888L10.667 5.56604C7.84774 5.66449 6.34892 7.27178 6.44737 10.0911L6.45755 10.3826L5.0001 10.4334C3.23135 10.4952 1.84397 11.9842 1.90569 13.7518L2.19071 21.9135C2.25243 23.6811 3.7403 25.0697 5.50905 25.0079L22.9984 24.3972C25.8177 24.2987 27.3165 22.6914 27.218 19.8721L26.8516 9.37853C26.7531 6.55925 25.1459 5.06043 22.3266 5.15888ZM6.85453 21.7506C6.88258 22.554 6.25132 23.2309 5.44798 23.259C4.64464 23.287 3.96769 22.6558 3.93964 21.8524L3.65463 13.6907C3.62657 12.8874 4.25783 12.2104 5.06118 12.1824L6.51862 12.1315L6.85453 21.7506ZM25.4691 19.9332C25.5333 21.7719 24.776 22.584 22.9373 22.6482L8.30338 23.1592C8.51197 22.7142 8.62179 22.2142 8.60346 21.6895L8.1963 10.03C8.13209 8.19128 8.88938 7.37919 10.7281 7.31498L22.3877 6.90782C24.2264 6.84361 25.0385 7.60089 25.1027 9.4396L25.4691 19.9332Z" fill="white"/>
</svg>
