<svg width="244" height="222" viewBox="0 0 244 222" fill="none" xmlns="http://www.w3.org/2000/svg">
<path d="M147.251 80.2089C141.757 83.3813 134.73 81.4986 131.558 76.0039V76.0039C127.321 68.6658 129.941 57.892 125.704 50.5539L120.798 42.0569C119.564 39.9189 117.146 38.7947 114.796 38.0394V38.0394C112.096 37.1717 109.075 36.6889 106.619 38.1068L99.1582 42.4146C91.7888 46.6692 89.0007 57.6243 81.894 62.3046C81.7044 62.4294 81.51 62.5495 81.3108 62.6645C75.8162 65.8368 68.79 63.954 65.6176 58.4595C62.4452 52.9648 64.3279 45.9385 69.8225 42.7662V42.7662C76.5904 38.859 86.2078 40.6786 92.9756 36.7712L93.8841 36.2467C101.765 31.6965 105.441 20.0554 113.826 16.5194C114.309 16.3161 114.81 16.1433 115.33 16.004C121.459 14.3619 127.758 17.9993 129.4 24.1278V24.1278C131.275 31.1254 128.752 39.8778 132.374 46.1516L133.446 48.0081C137.239 54.5782 146.334 57.3579 150.794 63.495C151.03 63.8198 151.251 64.1601 151.456 64.5156C154.629 70.0103 152.746 77.0366 147.251 80.2089Z" fill="white"/>
<path d="M108.129 74.9177C108.129 81.2625 102.985 86.4061 96.6407 86.4061V86.4061C88.1653 86.4059 80.1422 78.7469 71.6668 78.7469H61.8643C59.3948 78.7469 57.2119 80.2793 55.3821 81.9377V81.9377C53.2807 83.8423 51.3518 86.2176 51.3518 89.0537V97.6656C51.3518 106.174 59.4447 114.065 59.9467 122.559C59.9602 122.786 59.967 123.016 59.967 123.247C59.9668 129.592 54.8232 134.734 48.4787 134.734C42.1342 134.734 36.9907 129.592 36.9905 123.247V123.247C36.9905 115.432 43.3743 108.013 43.3743 100.199V99.1514C43.3743 90.0508 35.1296 81.0475 36.2602 72.0174C36.3252 71.4983 36.4265 70.9774 36.5657 70.4578C38.2078 64.3292 44.5075 60.6916 50.636 62.3337V62.3337C57.6332 64.2087 63.951 70.7693 71.1951 70.7693H73.3426C80.929 70.7693 87.8845 64.2846 95.4296 63.4935C95.8276 63.4518 96.2316 63.4304 96.6407 63.4304C102.985 63.4304 108.129 68.5732 108.129 74.9177Z" fill="white"/>
<path d="M162.657 117.763C157.162 114.591 155.279 107.565 158.452 102.07V102.07C162.689 94.7306 173.333 91.6127 177.571 84.2732L182.471 75.7867C183.706 73.6474 183.47 70.99 182.948 68.5755V68.5755C182.35 65.803 181.257 62.9447 178.801 61.5266L171.343 57.2208C163.973 52.9658 153.09 56.0304 145.483 52.2163C145.28 52.1144 145.078 52.0058 144.878 51.8906C139.384 48.7182 137.501 41.692 140.673 36.1973C143.846 30.7027 150.872 28.8199 156.367 31.9923V31.9923C163.133 35.8991 166.366 45.1358 173.133 49.0427L174.041 49.5671C181.924 54.1182 193.847 51.479 201.103 56.9753C201.519 57.2908 201.919 57.6386 202.299 58.0186C206.785 62.505 206.785 69.779 202.299 74.2654V74.2654C197.177 79.387 188.339 81.578 184.717 87.8506L183.643 89.711C179.85 96.2814 181.988 105.548 178.901 112.478C178.738 112.843 178.555 113.204 178.35 113.558C175.178 119.053 168.151 120.936 162.657 117.763Z" fill="white"/>
<path d="M136.559 149.781C136.559 143.436 141.701 138.293 148.046 138.292V138.292C156.521 138.292 164.544 145.952 173.02 145.952H182.822C185.292 145.952 187.475 144.419 189.305 142.761V142.761C191.407 140.856 193.336 138.481 193.336 135.644V127.033C193.336 118.524 185.243 110.634 184.741 102.14C184.727 101.912 184.721 101.683 184.721 101.451C184.721 95.1069 189.864 89.9641 196.209 89.9641C202.553 89.9642 207.697 95.107 207.697 101.451V101.451C207.697 109.266 201.313 116.685 201.313 124.5V125.547C201.313 134.648 209.558 143.651 208.427 152.681C208.362 153.2 208.261 153.721 208.122 154.241C206.48 160.369 200.18 164.007 194.052 162.365V162.365C187.054 160.49 180.736 153.929 173.492 153.929H171.344C163.758 153.929 156.802 160.414 149.257 161.205C148.859 161.247 148.455 161.268 148.046 161.268C141.702 161.268 136.559 156.125 136.559 149.781Z" fill="white"/>
<path d="M100.288 141.563C105.783 138.391 112.809 140.273 115.981 145.767V145.767C120.218 153.105 117.599 163.879 121.835 171.217L126.741 179.714C127.975 181.852 130.393 182.976 132.744 183.732V183.732C135.443 184.6 138.465 185.083 140.921 183.665L148.382 179.357C155.751 175.103 158.539 164.148 165.646 159.468C165.835 159.343 166.03 159.223 166.229 159.107C171.724 155.935 178.75 157.818 181.922 163.313C185.094 168.807 183.211 175.833 177.717 179.005V179.005C170.948 182.913 161.33 181.093 154.562 185.001L153.654 185.525C145.773 190.075 142.098 201.716 133.713 205.253C133.231 205.456 132.729 205.629 132.21 205.768C126.081 207.41 119.781 203.773 118.139 197.645V197.645C116.264 190.647 118.788 181.894 115.165 175.62L114.094 173.763C110.3 167.193 101.205 164.413 96.7455 158.276C96.5095 157.951 96.2882 157.611 96.083 157.255C92.9109 151.761 94.7939 144.735 100.288 141.563Z" fill="white"/>
<path d="M83.9456 102.76C89.4402 105.933 91.3229 112.959 88.1506 118.454V118.454C83.9131 125.793 73.269 128.911 69.0315 136.25L64.1311 144.738C62.8961 146.877 63.132 149.534 63.6535 151.948V151.948C64.2524 154.721 65.3451 157.579 67.8012 158.997L75.2589 163.303C82.6285 167.557 93.5108 164.494 101.118 168.307C101.322 168.409 101.524 168.518 101.724 168.633C107.219 171.805 109.101 178.832 105.929 184.326C102.757 189.821 95.7303 191.704 90.2357 188.531V188.531C83.4688 184.624 80.236 175.388 73.4692 171.481L72.5609 170.957C64.6781 166.405 52.7553 169.045 45.4997 163.548C45.0832 163.233 44.6832 162.885 44.3032 162.505C39.8169 158.019 39.8165 150.744 44.3028 146.258V146.258C49.4244 141.136 58.2629 138.945 61.8844 132.673L62.9586 130.812C66.752 124.242 64.6136 114.975 67.7017 108.045C67.8645 107.68 68.0479 107.319 68.2523 106.965C71.4247 101.471 78.4509 99.5879 83.9456 102.76Z" fill="white"/>
</svg>
